<svg width="18" height="18" viewBox="0 0 18 18" fill="none" xmlns="http://www.w3.org/2000/svg">
<g clip-path="url(#clip0_1_11100)">
<path d="M9 3.54541C9 3.54541 14.6249 3.54591 16.0322 3.92432C16.4145 4.02853 16.7627 4.23116 17.042 4.51221C17.3213 4.79328 17.5223 5.14294 17.624 5.52588C17.9977 6.92934 18 9.84493 18 9.88623C18 9.88623 18.0004 12.8341 17.624 14.2476C17.5223 14.6305 17.3213 14.9802 17.042 15.2612C16.7627 15.5423 16.4145 15.7449 16.0322 15.8491C14.6249 16.2275 9 16.228 9 16.228C8.99991 16.228 3.37508 16.2275 1.96777 15.8491C1.58554 15.7449 1.23727 15.5423 0.958008 15.2612C0.678729 14.9802 0.477742 14.6305 0.375977 14.2476C-0.000355517 12.8341 0 9.88623 0 9.88623C1.88084e-05 9.84493 0.00233671 6.92934 0.375977 5.52588C0.477742 5.14294 0.678729 4.79328 0.958008 4.51221C1.23728 4.23116 1.58551 4.02853 1.96777 3.92432C3.37505 3.54591 8.99991 3.54541 9 3.54541ZM7.15918 12.563L11.8633 9.88721L7.15918 7.21045V12.563Z" fill="white"/>
</g>
<defs>
<clipPath id="clip0_1_11100">
<rect width="18" height="18" fill="white"/>
</clipPath>
</defs>
</svg>
